<svg aria-hidden="true" style="position: absolute; width: 0; height: 0; overflow: hidden;" version="1.1" xmlns="http://www.w3.org/2000/svg" xmlns:xlink="http://www.w3.org/1999/xlink">
<defs>
<symbol id="icon-clock" viewBox="0 0 32 32">
<path d="M20.586 23.414l-6.586-6.586v-8.828h4v7.172l5.414 5.414zM16 0c-8.837 0-16 7.163-16 16s7.163 16 16 16 16-7.163 16-16-7.163-16-16-16zM16 28c-6.627 0-12-5.373-12-12s5.373-12 12-12c6.627 0 12 5.373 12 12s-5.373 12-12 12z"></path>
</symbol>
<symbol id="icon-hour-glass" viewBox="0 0 32 32">
<path d="M22.781 16c4.305-2.729 7.219-7.975 7.219-14 0-0.677-0.037-1.345-0.109-2h-27.783c-0.072 0.655-0.109 1.323-0.109 2 0 6.025 2.914 11.271 7.219 14-4.305 2.729-7.219 7.975-7.219 14 0 0.677 0.037 1.345 0.109 2h27.783c0.072-0.655 0.109-1.323 0.109-2 0-6.025-2.914-11.271-7.219-14zM5 30c0-5.841 2.505-10.794 7-12.428v-3.143c-4.495-1.634-7-6.587-7-12.428v0h22c0 5.841-2.505 10.794-7 12.428v3.143c4.495 1.634 7 6.587 7 12.428h-22zM19.363 20.925c-2.239-1.27-2.363-2.918-2.363-3.918v-2.007c0-1 0.119-2.654 2.367-3.927 1.203-0.699 2.244-1.761 3.033-3.073h-12.799c0.79 1.313 1.832 2.376 3.036 3.075 2.239 1.27 2.363 2.918 2.363 3.918v2.007c0 1-0.119 2.654-2.367 3.927-2.269 1.318-3.961 3.928-4.472 7.073h15.677c-0.511-3.147-2.204-5.758-4.475-7.075z"></path>
</symbol>
<symbol id="icon-spoon-knife" viewBox="0 0 32 32">
<path d="M7 0c-3.314 0-6 3.134-6 7 0 3.31 1.969 6.083 4.616 6.812l-0.993 16.191c-0.067 1.098 0.778 1.996 1.878 1.996h1c1.1 0 1.945-0.898 1.878-1.996l-0.993-16.191c2.646-0.729 4.616-3.502 4.616-6.812 0-3.866-2.686-7-6-7zM27.167 0l-1.667 10h-1.25l-0.833-10h-0.833l-0.833 10h-1.25l-1.667-10h-0.833v13c0 0.552 0.448 1 1 1h2.604l-0.982 16.004c-0.067 1.098 0.778 1.996 1.878 1.996h1c1.1 0 1.945-0.898 1.878-1.996l-0.982-16.004h2.604c0.552 0 1-0.448 1-1v-13h-0.833z"></path>
</symbol>
</defs>
</svg>
